<svg height="27" viewBox="0 0 26 27" width="26" xmlns="http://www.w3.org/2000/svg"><path d="m17.815 8.76487c-.1186-.11963-.2598-.21458-.4153-.27938-.1555-.06479-.3224-.09815-.4908-.09815-.1685 0-.3354.03336-.4909.09815-.1555.0648-.2967.15975-.4153.27938l-2.9228 2.93553-2.9228-2.93553c-.24029-.24034-.56625-.37536-.90614-.37536-.33988 0-.66585.13502-.90618.37536-.24034.24033-.37536.5663-.37536.90618 0 .33985.13502.66585.37536.90615l2.93552 2.9228-2.93552 2.9228c-.11963.1186-.21458.2598-.27938.4153-.06479.1555-.09815.3224-.09815.4908 0 .1685.03336.3354.09815.4909.0648.1555.15975.2967.27938.4153.11865.1197.25981.2146.41534.2794s.32235.0982.49084.0982.33531-.0334.49084-.0982.2967-.1597.4153-.2794l2.9228-2.9355 2.9228 2.9355c.1186.1197.2598.2146.4153.2794s.3224.0982.4909.0982c.1684 0 .3353-.0334.4908-.0982s.2967-.1597.4153-.2794c.1197-.1186.2146-.2598.2794-.4153s.0982-.3224.0982-.4909c0-.1684-.0334-.3353-.0982-.4908s-.1597-.2967-.2794-.4153l-2.9355-2.9228 2.9355-2.9228c.1197-.1186.2146-.2598.2794-.4153s.0982-.32236.0982-.49085-.0334-.33531-.0982-.49084-.1597-.29669-.2794-.41534zm4.2885-4.28843c-1.1774-1.21901-2.5857-2.19133-4.1429-2.86024-1.5572-.668902-3.2319-1.02099-4.9266-1.035716-1.6947-.014727-3.37535.308203-4.9439.949946-1.56854.64174-2.99358 1.58945-4.19194 2.78782-1.19837 1.19836-2.14608 2.6234-2.78782 4.19194-.641743 1.56851-.964672 3.24921-.949946 4.94391s.366814 3.3694 1.035716 4.9266c.66891 1.5571 1.64123 2.9655 2.86025 4.1429 1.17736 1.219 2.5857 2.1913 4.14286 2.8602s3.23198 1.021 4.92658 1.0357c1.6947.0147 3.3754-.3082 4.9439-.9499 1.5686-.6418 2.9936-1.5895 4.192-2.7878 1.1983-1.1984 2.146-2.6234 2.7878-4.192.6417-1.5685.9647-3.2492.9499-4.9439-.0147-1.6947-.3668-3.3694-1.0357-4.92659-.6689-1.55716-1.6412-2.9655-2.8602-4.14287zm-1.7996 16.24756c-1.6694 1.6712-3.8666 2.7119-6.2172 2.9448-2.3507.2329-4.70937-.3564-6.67424-1.6675-1.96487-1.3112-3.41436-3.263-4.10151-5.523s-.56945-4.6884.33304-6.87134c.9025-2.18296 2.53395-3.98547 4.61641-5.10044 2.0825-1.11497 4.4871-1.47342 6.8042-1.01428 2.3171.45915 4.4033 1.70748 5.9033 3.53232 1.4999 1.82484 2.3207 4.11324 2.3225 6.47544.0046 1.3418-.257 2.6711-.7697 3.9111-.5126 1.24-1.2661 2.366-2.2168 3.3129z"/></svg>