<svg height="27" viewBox="0 0 27 27" width="27" xmlns="http://www.w3.org/2000/svg"><path d="m26.4166 7.35167c.001-.16999-.0316-.33851-.0959-.49588-.0643-.15738-.159-.30051-.2787-.42121l-5.4766-5.476662c-.1207-.119714-.2639-.214425-.4212-.278705-.1574-.064279-.3259-.096861-.4959-.095878-.17-.000983-.3385.031599-.4959.095878-.1574.06428-.3005.158991-.4212.278705l-3.6554 3.655412-14.117943 14.11797c-.119714.1206-.214425.2638-.278705.4212-.064279.1573-.096861.3258-.095878.4958v5.4767c0 .3426.136085.6711.37832.9133.242236.2423.570776.3784.913346.3784h5.47667c.18074.0098.36153-.0185.53064-.083s.32278-.1639.45102-.2916l14.04043-14.1179 3.6683-3.59087c.1179-.12518.214-.26927.2842-.42625.0124-.10295.0124-.20704 0-.31.006-.06012.006-.1207 0-.18083zm-19.59458 16.48163h-3.65541v-3.6554l12.82629-12.82623 3.6554 3.65543zm14.64748-14.64747-3.6554-3.65541 1.8342-1.82125 3.6425 3.6425z"/></svg>