<svg width="26" height="32" viewBox="0 0 26 32" xmlns="http://www.w3.org/2000/svg">
<path d="M5.08584e-07 16C5.45682e-07 16.4243 0.171204 16.8313 0.475951 17.1314C0.780697 17.4314 1.19402 17.6 1.625 17.6L13.9587 17.6L10.2213 21.264C10.0697 21.4132 9.94955 21.5903 9.86755 21.7852C9.78555 21.9801 9.74335 22.189 9.74335 22.4C9.74335 22.611 9.78555 22.8199 9.86755 23.0148C9.94955 23.2097 10.0697 23.3868 10.2213 23.536C10.3728 23.6852 10.5526 23.8035 10.7506 23.8843C10.9486 23.965 11.1607 24.0065 11.375 24.0065C11.5893 24.0065 11.8014 23.965 11.9994 23.8843C12.1974 23.8035 12.3772 23.6852 12.5288 23.536L19.0287 17.136C19.1767 16.9838 19.2927 16.8044 19.37 16.608C19.5325 16.2185 19.5325 15.7815 19.37 15.392C19.2927 15.1956 19.1767 15.0162 19.0287 14.864L12.5287 8.464C12.3777 8.31404 12.198 8.195 11.9999 8.11377C11.8019 8.03254 11.5895 7.99072 11.375 7.99072C11.1605 7.99072 10.9481 8.03254 10.7501 8.11377C10.552 8.195 10.3723 8.31404 10.2212 8.464C10.0689 8.61274 9.94805 8.7897 9.86555 8.98468C9.78305 9.17965 9.74058 9.38878 9.74058 9.6C9.74058 9.81122 9.78305 10.0203 9.86555 10.2153C9.94805 10.4103 10.0689 10.5873 10.2212 10.736L13.9587 14.4L1.625 14.4C1.19402 14.4 0.780697 14.5686 0.475951 14.8686C0.171204 15.1687 4.71487e-07 15.5757 5.08584e-07 16ZM4.875 32L21.125 32C22.4179 32 23.6579 31.4943 24.5721 30.5941C25.4864 29.6939 26 28.473 26 27.2L26 4.8C26 3.52696 25.4864 2.30606 24.5721 1.40588C23.6579 0.50571 22.4179 -2.54787e-06 21.125 -2.43484e-06L4.875 -1.01422e-06C3.58207 -9.01185e-07 2.34209 0.505711 1.42785 1.40589C0.513613 2.30606 -5.81844e-07 3.52696 -4.70551e-07 4.8L-5.09217e-08 9.6C-1.38242e-08 10.0243 0.171204 10.4313 0.47595 10.7314C0.780697 11.0314 1.19402 11.2 1.625 11.2C2.05598 11.2 2.4693 11.0314 2.77405 10.7314C3.0788 10.4313 3.25 10.0243 3.25 9.6L3.25 4.8C3.25 4.37565 3.4212 3.96869 3.72595 3.66863C4.0307 3.36857 4.44402 3.2 4.875 3.2L21.125 3.2C21.556 3.2 21.9693 3.36857 22.274 3.66863C22.5788 3.96868 22.75 4.37565 22.75 4.8L22.75 27.2C22.75 27.6243 22.5788 28.0313 22.274 28.3314C21.9693 28.6314 21.556 28.8 21.125 28.8L4.875 28.8C4.44402 28.8 4.0307 28.6314 3.72595 28.3314C3.4212 28.0313 3.25 27.6243 3.25 27.2L3.25 22.4C3.25 21.9757 3.0788 21.5687 2.77405 21.2686C2.4693 20.9686 2.05598 20.8 1.625 20.8C1.19402 20.8 0.780698 20.9686 0.475951 21.2686C0.171205 21.5687 1.03099e-06 21.9757 1.06809e-06 22.4L1.48772e-06 27.2C1.59901e-06 28.473 0.513616 29.6939 1.42786 30.5941C2.3421 31.4943 3.58207 32 4.875 32Z"/>
</svg>
