<svg width="38" height="38" viewBox="0 0 38 38" xmlns="http://www.w3.org/2000/svg">
<path d="M7.33996 28.1667L6.03829 29.4683C5.69683 29.8118 5.50517 30.2765 5.50517 30.7608C5.50517 31.2452 5.69683 31.7098 6.03829 32.0533C6.38179 32.3948 6.84645 32.5864 7.33079 32.5864C7.81513 32.5864 8.27979 32.3948 8.62329 32.0533L9.92496 30.7517C10.2253 30.4009 10.3823 29.9498 10.3644 29.4884C10.3466 29.027 10.1553 28.5893 9.82883 28.2628C9.50232 27.9363 9.06463 27.745 8.60322 27.7272C8.14182 27.7094 7.69068 27.8663 7.33996 28.1667V28.1667ZM6.16663 19C6.16663 18.5138 5.97347 18.0474 5.62965 17.7036C5.28584 17.3598 4.81952 17.1667 4.33329 17.1667H2.49996C2.01373 17.1667 1.54741 17.3598 1.2036 17.7036C0.85978 18.0474 0.666626 18.5138 0.666626 19C0.666626 19.4862 0.85978 19.9525 1.2036 20.2964C1.54741 20.6402 2.01373 20.8333 2.49996 20.8333H4.33329C4.81952 20.8333 5.28584 20.6402 5.62965 20.2964C5.97347 19.9525 6.16663 19.4862 6.16663 19ZM19 6.16666C19.4862 6.16666 19.9525 5.9735 20.2963 5.62969C20.6401 5.28587 20.8333 4.81955 20.8333 4.33332V2.49999C20.8333 2.01376 20.6401 1.54744 20.2963 1.20363C19.9525 0.859811 19.4862 0.666656 19 0.666656C18.5137 0.666656 18.0474 0.859811 17.7036 1.20363C17.3598 1.54744 17.1666 2.01376 17.1666 2.49999V4.33332C17.1666 4.81955 17.3598 5.28587 17.7036 5.62969C18.0474 5.9735 18.5137 6.16666 19 6.16666ZM7.33996 9.92499C7.68144 10.2637 8.14234 10.4546 8.62329 10.4567C8.86457 10.4581 9.10375 10.4118 9.32712 10.3206C9.55049 10.2293 9.75365 10.0949 9.92496 9.92499C10.2664 9.58149 10.4581 9.11683 10.4581 8.63249C10.4581 8.14815 10.2664 7.68349 9.92496 7.33999L8.62329 6.03832C8.27257 5.73797 7.82143 5.58103 7.36003 5.59885C6.89862 5.61667 6.46093 5.80795 6.13443 6.13446C5.80792 6.46096 5.61664 6.89865 5.59882 7.36006C5.581 7.82146 5.73794 8.2726 6.03829 8.62332L7.33996 9.92499ZM29.34 10.4567C29.8209 10.4546 30.2818 10.2637 30.6233 9.92499L31.925 8.62332C32.1169 8.45897 32.2727 8.25672 32.3828 8.02927C32.4928 7.80182 32.5547 7.55407 32.5644 7.30159C32.5742 7.0491 32.5316 6.79733 32.4395 6.56206C32.3473 6.3268 32.2075 6.11313 32.0288 5.93446C31.8501 5.7558 31.6365 5.61599 31.4012 5.52382C31.166 5.43165 30.9142 5.38911 30.6617 5.39886C30.4092 5.40861 30.1615 5.47045 29.934 5.58049C29.7066 5.69054 29.5043 5.84641 29.34 6.03832L28.1666 7.33999C27.8252 7.68349 27.6335 8.14815 27.6335 8.63249C27.6335 9.11683 27.8252 9.58149 28.1666 9.92499C28.4898 10.2465 28.9212 10.436 29.3766 10.4567H29.34ZM35.5 17.1667H33.6666C33.1804 17.1667 32.7141 17.3598 32.3703 17.7036C32.0264 18.0474 31.8333 18.5138 31.8333 19C31.8333 19.4862 32.0264 19.9525 32.3703 20.2964C32.7141 20.6402 33.1804 20.8333 33.6666 20.8333H35.5C35.9862 20.8333 36.4525 20.6402 36.7963 20.2964C37.1401 19.9525 37.3333 19.4862 37.3333 19C37.3333 18.5138 37.1401 18.0474 36.7963 17.7036C36.4525 17.3598 35.9862 17.1667 35.5 17.1667ZM19 31.8333C18.5137 31.8333 18.0474 32.0265 17.7036 32.3703C17.3598 32.7141 17.1666 33.1804 17.1666 33.6667V35.5C17.1666 35.9862 17.3598 36.4525 17.7036 36.7964C18.0474 37.1402 18.5137 37.3333 19 37.3333C19.4862 37.3333 19.9525 37.1402 20.2963 36.7964C20.6401 36.4525 20.8333 35.9862 20.8333 35.5V33.6667C20.8333 33.1804 20.6401 32.7141 20.2963 32.3703C19.9525 32.0265 19.4862 31.8333 19 31.8333ZM30.66 28.1667C30.3117 27.9729 29.9097 27.898 29.515 27.9531C29.1202 28.0083 28.7543 28.1906 28.4724 28.4725C28.1906 28.7543 28.0083 29.1203 27.9531 29.515C27.8979 29.9097 27.9729 30.3117 28.1666 30.66L29.4683 31.9617C29.8118 32.3031 30.2765 32.4948 30.7608 32.4948C31.2451 32.4948 31.7098 32.3031 32.0533 31.9617C32.3948 31.6182 32.5864 31.1535 32.5864 30.6692C32.5864 30.1848 32.3948 29.7202 32.0533 29.3767L30.66 28.1667ZM19 8.91666C17.0057 8.91666 15.0562 9.50803 13.398 10.616C11.7398 11.724 10.4474 13.2988 9.68417 15.1413C8.92099 16.9838 8.72131 19.0112 9.11037 20.9672C9.49944 22.9231 10.4598 24.7198 11.87 26.13C13.2801 27.5402 15.0768 28.5005 17.0328 28.8896C18.9888 29.2786 21.0162 29.079 22.8587 28.3158C24.7012 27.5526 26.276 26.2602 27.3839 24.602C28.4919 22.9438 29.0833 20.9943 29.0833 19C29.0784 16.3272 28.0145 13.7653 26.1246 11.8753C24.2347 9.98541 21.6727 8.9215 19 8.91666ZM19 25.4167C17.7309 25.4167 16.4903 25.0403 15.435 24.3353C14.3798 23.6302 13.5574 22.628 13.0717 21.4555C12.5861 20.283 12.459 18.9929 12.7066 17.7482C12.9542 16.5034 13.5653 15.3601 14.4627 14.4627C15.3601 13.5653 16.5034 12.9542 17.7481 12.7066C18.9928 12.459 20.283 12.5861 21.4555 13.0718C22.628 13.5574 23.6301 14.3799 24.3352 15.4351C25.0403 16.4903 25.4166 17.7309 25.4166 19C25.4166 20.7018 24.7406 22.3339 23.5372 23.5373C22.3339 24.7406 20.7018 25.4167 19 25.4167V25.4167Z"/>
</svg>
