<svg width="42" height="38" viewBox="0 0 42 38" xmlns="http://www.w3.org/2000/svg">
<path d="M41.8333 24.0833C41.8428 23.9933 41.8428 23.9025 41.8333 23.8125C41.8251 23.7294 41.8251 23.6456 41.8333 23.5625L41.7292 23.3125L29.2291 1.875C29.0296 1.53503 28.7377 1.25865 28.3874 1.07795C28.0371 0.897247 27.6427 0.819648 27.25 0.854164H14.75C14.385 0.851643 14.0258 0.945038 13.7083 1.125L13.4791 1.29166C13.4122 1.34196 13.3495 1.39771 13.2916 1.45833C13.2112 1.53189 13.1412 1.61598 13.0833 1.70833C13.0833 1.70833 13.0833 1.70833 12.9583 1.875L0.458313 23.3958C0.275463 23.7125 0.179199 24.0718 0.179199 24.4375C0.179199 24.8032 0.275463 25.1625 0.458313 25.4792L6.70831 36.0625C6.77275 36.1749 6.84962 36.2797 6.93748 36.375V36.5C7.19627 36.75 7.5103 36.9356 7.85415 37.0417V37.0417C8.00625 37.062 8.16038 37.062 8.31248 37.0417H33.5C33.8615 37.0416 34.2168 36.9474 34.531 36.7685C34.8451 36.5895 35.1073 36.3318 35.2917 36.0208L41.5417 25.3125L41.6458 25.0625C41.6376 24.9794 41.6376 24.8956 41.6458 24.8125C41.6569 24.7226 41.6569 24.6316 41.6458 24.5417C41.6574 24.4518 41.6574 24.3607 41.6458 24.2708C41.7149 24.2153 41.7778 24.1524 41.8333 24.0833V24.0833ZM8.49998 30.9375L4.77081 24.4792L14.75 7.0625L16.5625 10.1875L18.6458 13.6458L10.5833 27.1458L8.49998 30.9375ZM21 17.7708L23.625 22.2708H18.3333L21 17.7708ZM32.3125 32.9792H12.0416L15.875 26.4375H36.125L32.3125 32.9792ZM28.4375 22.2708L18.375 5.02083H26.0625L36.125 22.2708H28.4375Z"/>
</svg>
