<svg width="35" height="38" viewBox="0 0 35 38" xmlns="http://www.w3.org/2000/svg">
<path d="M14.7838 33.1715C14.7838 32.9271 14.73 32.6857 14.6262 32.4643C14.5225 32.243 14.3713 32.0472 14.1835 31.8908C13.9956 31.7344 13.7757 31.6213 13.5392 31.5593C13.3028 31.4974 13.0556 31.4883 12.8152 31.5325C10.6334 31.9329 7.87869 31.9931 7.14626 29.9359C6.5076 28.3425 5.44971 26.9517 4.08474 25.9109C3.98735 25.8579 3.89453 25.7969 3.80724 25.7286C3.68778 25.4134 3.47559 25.1419 3.19868 24.9499C2.92176 24.7578 2.59312 24.6542 2.25612 24.6527H2.24799C1.80732 24.6525 1.38454 24.827 1.07217 25.1378C0.759813 25.4487 0.583319 25.8706 0.581322 26.3112C0.574806 27.6703 1.93299 28.5411 2.48399 28.8357C3.13373 29.4885 3.65591 30.2568 4.02371 31.1013C4.63081 32.807 6.39512 35.3949 11.4667 35.0613C11.4684 35.1199 11.47 35.1752 11.4708 35.2257L11.4781 35.6716C11.4781 36.1137 11.6537 36.5376 11.9663 36.8501C12.2788 37.1627 12.7028 37.3383 13.1448 37.3383C13.5868 37.3383 14.0107 37.1627 14.3233 36.8501C14.6359 36.5376 14.8115 36.1137 14.8115 35.6716L14.8033 35.141C14.7952 34.8252 14.7838 34.3678 14.7838 33.1715ZM32.5621 7.96152C32.615 7.75319 32.6671 7.52207 32.7127 7.26166C32.9822 5.4043 32.7472 3.50864 32.0323 1.77332C31.9421 1.54709 31.8035 1.34334 31.6263 1.17633C31.449 1.00932 31.2373 0.883109 31.0061 0.80654C30.4128 0.60634 28.2221 0.212456 24.0327 2.88987C20.5502 2.07036 16.9251 2.07036 13.4427 2.88987C9.27029 0.251673 7.09092 0.609673 6.50336 0.798473C6.26646 0.87194 6.04901 0.997484 5.86694 1.1659C5.68486 1.33432 5.54278 1.54135 5.45111 1.77181C4.72161 3.54044 4.48917 5.47477 4.77891 7.36587C4.81961 7.57909 4.86354 7.77604 4.90912 7.95669C3.52841 9.79576 2.79297 12.039 2.81684 14.3385C2.81234 14.8516 2.83597 15.3645 2.88764 15.875C3.44431 23.5459 8.4443 25.8489 11.9282 26.64C11.8557 26.8483 11.7898 27.0713 11.7312 27.3073C11.6268 27.7361 11.6967 28.1889 11.9256 28.5662C12.1544 28.9436 12.5236 29.2148 12.9522 29.3204C13.3807 29.426 13.8336 29.3573 14.2116 29.1294C14.5896 28.9015 14.8618 28.5331 14.9685 28.1048C15.0746 27.5495 15.3464 27.0393 15.7482 26.6416C15.9911 26.4289 16.167 26.1502 16.2544 25.8394C16.3419 25.5286 16.3371 25.1991 16.2407 24.8909C16.1443 24.5828 15.9604 24.3093 15.7115 24.1037C15.4625 23.8982 15.1591 23.7694 14.8383 23.7331C9.08149 23.0755 6.58229 20.7301 6.20632 15.569C6.16468 15.1602 6.14593 14.7494 6.15017 14.3385C6.12343 12.6996 6.66489 11.102 7.68255 9.81706C7.78481 9.68309 7.89373 9.55435 8.00889 9.43131C8.21294 9.20298 8.35014 8.92284 8.40541 8.62165C8.46069 8.32046 8.4319 8.00986 8.32222 7.72396C8.20978 7.42317 8.12321 7.11334 8.06344 6.79784C7.92766 5.9007 7.97219 4.98549 8.19444 4.10577C9.64299 4.51489 11.0063 5.18084 12.2194 6.07191C12.4201 6.20553 12.6471 6.29445 12.8851 6.33265C13.1231 6.37084 13.3665 6.35741 13.5988 6.29327C16.9674 5.37911 20.5187 5.37968 23.8869 6.29494C24.1205 6.35901 24.3653 6.37167 24.6042 6.33205C24.8432 6.29244 25.0707 6.20148 25.2712 6.06546C26.4787 5.17069 27.8362 4.49879 29.28 4.08141C29.5013 4.94 29.5508 5.83383 29.4257 6.71161C29.3653 7.0575 29.271 7.3966 29.1441 7.72399C29.0344 8.00989 29.0056 8.32049 29.0609 8.62168C29.1162 8.92287 29.2534 9.20301 29.4574 9.43134C29.586 9.57619 29.7146 9.73244 29.8301 9.87892C30.8406 11.1421 31.3729 12.7214 31.3333 14.3385C31.3363 14.7712 31.3154 15.2037 31.2706 15.6341C30.9036 20.7269 28.3946 23.0739 22.6109 23.733C22.29 23.7696 21.9867 23.8986 21.7377 24.1044C21.4888 24.3101 21.305 24.5838 21.2087 24.8921C21.1124 25.2004 21.1077 25.53 21.1953 25.8409C21.2829 26.1518 21.4589 26.4305 21.7019 26.6432C22.1163 27.0516 22.3887 27.5821 22.4791 28.1569C22.5917 28.603 22.6435 29.0624 22.6329 29.5224V33.4124C22.6166 34.4915 22.6166 35.3004 22.6166 35.6715C22.6166 36.1136 22.7922 36.5375 23.1048 36.85C23.4173 37.1626 23.8412 37.3382 24.2833 37.3382C24.7253 37.3382 25.1492 37.1626 25.4618 36.85C25.7743 36.5375 25.9499 36.1136 25.9499 35.6715C25.9499 35.3102 25.9499 34.5176 25.9662 33.4385V29.5224C25.9796 28.7855 25.8929 28.0501 25.7082 27.3366C25.6555 27.1023 25.5908 26.8709 25.5146 26.6432C28.05 26.222 30.3537 24.9148 32.0156 22.9542C33.6775 20.9937 34.5898 18.507 34.5901 15.9368C34.645 15.4059 34.6705 14.8723 34.6666 14.3385C34.7036 12.0365 33.962 9.7894 32.5621 7.96156L32.5621 7.96152Z"/>
</svg>
