<svg width="38" height="34" viewBox="0 0 38 34" xmlns="http://www.w3.org/2000/svg">
<path d="M36.1078 1.04621C35.6332 0.651431 35.0606 0.3927 34.4507 0.297549C33.8408 0.202398 33.2165 0.274388 32.6442 0.505857L2.77606 12.5648C2.13731 12.8276 1.59359 13.2784 1.21706 13.8575C0.840531 14.4365 0.649005 15.1164 0.667901 15.8068C0.686797 16.4973 0.915221 17.1656 1.32286 17.7232C1.73049 18.2808 2.29806 18.7012 2.95023 18.9287L8.99189 21.0299L12.3594 32.166C12.4052 32.3148 12.4716 32.4564 12.5567 32.5867C12.5696 32.6067 12.5878 32.6215 12.6016 32.641C12.6999 32.7782 12.8187 32.8995 12.9539 33.0006C12.9924 33.0299 13.0292 33.0573 13.0703 33.0834C13.2285 33.1883 13.4038 33.2651 13.5882 33.3102L13.6079 33.3119L13.6191 33.3167C13.73 33.3392 13.8429 33.3507 13.956 33.3509C13.9669 33.3509 13.9766 33.3457 13.9874 33.3455C14.1581 33.3425 14.3274 33.3131 14.4892 33.2583C14.5268 33.2455 14.5591 33.224 14.5956 33.2085C14.7162 33.1586 14.8305 33.0945 14.9361 33.0176C15.0206 32.9464 15.1052 32.8752 15.1898 32.804L19.6934 27.8317L26.4105 33.0351C27.0018 33.4955 27.7297 33.7458 28.4792 33.7464C29.2645 33.7454 30.0255 33.4744 30.6348 32.9789C31.2441 32.4835 31.6645 31.7936 31.8255 31.025L37.2634 4.33072C37.3866 3.72992 37.3442 3.10692 37.1406 2.52837C36.9371 1.94982 36.5801 1.4375 36.1078 1.04621V1.04621ZM14.6169 21.5605C14.3858 21.7907 14.2278 22.084 14.1628 22.4036L13.6469 24.9103L12.3402 20.5885L19.1156 17.0603L14.6169 21.5605ZM28.4532 30.4L20.5153 24.2509C20.1832 23.9943 19.7666 23.8722 19.3486 23.909C18.9305 23.9458 18.5416 24.1388 18.2595 24.4495L16.8171 26.0415L17.3268 23.5641L29.1318 11.7591C29.4136 11.4777 29.5853 11.1047 29.6158 10.7076C29.6463 10.3105 29.5335 9.9157 29.298 9.59459C29.0625 9.27347 28.7198 9.04733 28.3319 8.95712C27.944 8.86691 27.5367 8.91859 27.1836 9.10281L10.2415 17.9239L4.03421 15.6523L33.9984 3.66499L28.4532 30.4Z"/>
</svg>
